<?xml version="1.0" encoding="utf-8"?>
<!-- Uploaded to: SVG Repo, www.svgrepo.com, Generator: SVG Repo Mixer Tools -->
<svg fill="#000000" width="800px" height="800px" viewBox="-5 0 32 32" version="1.1" xmlns="http://www.w3.org/2000/svg">
<title>briefcase</title>
<path d="M22.28 13.36c0-2-1.64-3.6-3.6-3.6h-3.36v-1.84c0-0.96-0.8-1.76-1.76-1.76h-4.8c-0.96 0-1.76 0.8-1.76 1.76v1.84h-3.44c-2 0-3.6 1.6-3.6 3.6v0 0 8.84c0 2 1.64 3.6 3.6 3.6h15.040c2 0 3.6-1.64 3.6-3.6l0.080-8.84zM8.64 7.92c0-0.040 0.040-0.080 0.080-0.080h4.8c0.040 0 0.080 0.040 0.080 0.080v1.84h-4.96v-1.84zM3.6 11.44h15.040c0.88 0 1.64 0.6 1.88 1.4l-6.92 2.96c-0.6-0.72-1.48-1.2-2.52-1.2-1 0-1.92 0.48-2.52 1.2l-6.84-2.96c0.2-0.8 1-1.4 1.88-1.4zM11.12 16.28c0.84 0 1.52 0.68 1.52 1.52s-0.68 1.52-1.52 1.52-1.52-0.68-1.52-1.52 0.64-1.52 1.52-1.52zM18.68 24.16h-15.080c-1.080 0-1.92-0.88-1.92-1.92v-7.6l6.28 2.68c-0.040 0.16-0.040 0.28-0.040 0.44 0 1.76 1.44 3.2 3.2 3.2s3.2-1.44 3.2-3.2c0-0.16 0-0.32-0.040-0.44l6.28-2.68v7.56c0.040 1.080-0.88 1.96-1.88 1.96z"></path>
</svg>